<?xml version="1.0" encoding="utf-8"?>
<!-- Generator: Adobe Illustrator 15.0.0, SVG Export Plug-In . SVG Version: 6.00 Build 0)  -->
<!DOCTYPE svg PUBLIC "-//W3C//DTD SVG 1.1//EN" "http://www.w3.org/Graphics/SVG/1.1/DTD/svg11.dtd">
<svg version="1.1" id="Layer_1" xmlns="http://www.w3.org/2000/svg" xmlns:xlink="http://www.w3.org/1999/xlink" x="0px" y="0px"
	 width="740.414px" height="188.531px" viewBox="0 0 740.414 188.531" enable-background="new 0 0 740.414 188.531"
	 xml:space="preserve">
<g>
	<g>
		<path fill-rule="evenodd" clip-rule="evenodd" d="M376.735,35.372l-34.077-23.585c0,0-3.596-2.569-3.596,1.307
			c0,3.516,0,40.589,0,47.436L376.735,35.372z"/>
		<path fill-rule="evenodd" clip-rule="evenodd" d="M338.974,62.104l74.225-50.046c0,0,3.598-2.568,3.598,1.307
			c0,3.876,0,46.605,0,46.605s0.654,2.896-3.269,2.896s-74.613,0-74.613,0C338.699,62.642,338.719,62.388,338.974,62.104z"/>
	</g>
</g>
<g>
	<path stroke="#000000" stroke-width="2.3332" stroke-linecap="round" stroke-linejoin="round" stroke-miterlimit="10" d="
		M51.923,134.053l5.917,4.437c-6.002,8.105-15.216,12.712-25.106,12.712c-17.412,0-31.529-14.249-31.529-31.824
		c0-17.491,14.117-31.739,31.529-31.739c9.975,0,19.189,4.69,25.191,12.798l-6.002,4.438c-4.565-6.229-11.581-9.727-19.189-9.727
		c-13.355,0-24.09,10.834-24.09,24.23c0,13.479,10.735,24.316,24.09,24.316C40.258,143.693,47.274,140.195,51.923,134.053z"/>
	<path stroke="#000000" stroke-width="2.3332" stroke-linecap="round" stroke-linejoin="round" stroke-miterlimit="10" d="
		M187.546,125.892v22.338h-7.341v-22.338c0-6.812-5.207-12.441-11.524-12.441c-6.403,0-11.611,5.63-11.611,12.441v22.338h-7.341
		v-22.338c0-6.812-5.123-12.441-11.525-12.441c-6.318,0-11.524,5.63-11.524,12.441v22.338h-7.342v-41.587h7.342v3.995
		c3.329-2.725,7.342-4.813,11.524-4.813c5.037,0,9.818,2.362,13.403,6.175c0.683,0.726,1.28,1.45,1.792,2.27
		c0.598-0.819,1.196-1.544,1.878-2.27c3.585-3.813,8.366-6.175,13.403-6.175c5.036,0,9.731,1.997,13.317,5.812
		C185.583,115.449,187.546,120.443,187.546,125.892z"/>
	<path stroke="#000000" stroke-width="2.3332" stroke-linecap="round" stroke-linejoin="round" stroke-miterlimit="10" d="
		M240.764,127.435c0,5.812-2.249,11.261-6.388,15.438c-4.048,4.085-9.445,6.264-15.203,6.264c-5.128,0-9.986-2.449-13.854-5.719
		v28.602h-7.736v-65.376h7.736v4.811c3.868-3.266,8.726-5.719,13.854-5.719c5.757,0,11.155,2.179,15.203,6.266
		C238.515,116.176,240.764,121.625,240.764,127.435z M233.027,127.435c0-7.718-6.207-14.073-13.853-14.073
		c-7.647,0-13.854,6.355-13.854,14.073c0,7.72,6.207,14.074,13.854,14.074C226.82,141.509,233.027,135.154,233.027,127.435z"/>
	<path stroke="#000000" stroke-width="2.3332" stroke-linecap="round" stroke-linejoin="round" stroke-miterlimit="10" d="
		M304.364,90.799c0-2.813,2.25-5.084,5.128-5.084c2.789,0,5.038,2.271,5.038,5.084c0,2.816-2.249,5.177-5.038,5.177
		C306.613,95.976,304.364,93.615,304.364,90.799z M305.624,104.669h7.736v43.561h-7.736V104.669z"/>
	<path stroke="#000000" stroke-width="2.3332" stroke-linecap="round" stroke-linejoin="round" stroke-miterlimit="10" d="
		M415.021,125.892v22.338h-7.736v-22.338c0-6.812-5.398-12.441-12.144-12.441c-6.659,0-12.146,5.63-12.146,12.441v22.338h-7.736
		v-41.587h7.736v3.995c3.507-2.725,7.736-4.813,12.146-4.813c5.307,0,10.344,1.997,14.123,5.812
		C412.952,115.449,415.021,120.443,415.021,125.892z"/>
	<path stroke="#000000" stroke-width="2.3332" stroke-linecap="round" stroke-linejoin="round" stroke-miterlimit="10" d="
		M494.796,150.203V98.628l-20.422,28.148l-20.331-28.148v51.575h-8.005V85.552h8.456l19.88,27.604l19.881-27.604h8.547v64.651
		H494.796z"/>
	<path stroke="#000000" stroke-width="2.3332" stroke-linecap="round" stroke-linejoin="round" stroke-miterlimit="10" d="
		M556.965,127.435c0,5.812-2.248,11.261-6.389,15.438c-4.047,4.085-9.443,6.354-15.201,6.354c-5.757,0-11.155-2.27-15.293-6.354
		c-4.05-4.177-6.299-9.626-6.299-15.438c0-5.81,2.249-11.259,6.299-15.435c4.138-4.087,9.536-6.266,15.293-6.266
		c5.758,0,11.154,2.179,15.201,6.266C554.717,116.176,556.965,121.625,556.965,127.435z M549.229,127.435
		c0-7.718-6.207-13.892-13.854-13.892s-13.854,6.174-13.854,13.892c0,7.72,6.208,13.983,13.854,13.983
		S549.229,135.154,549.229,127.435z"/>
	<path stroke="#000000" stroke-width="2.3332" stroke-linecap="round" stroke-linejoin="round" stroke-miterlimit="10" d="
		M604.558,125.892v22.338h-7.736v-22.338c0-6.812-5.396-12.441-12.143-12.441c-6.657,0-12.146,5.63-12.146,12.441v22.338h-7.736
		v-41.587h7.736v3.995c3.51-2.725,7.736-4.813,12.146-4.813c5.307,0,10.344,1.997,14.122,5.812
		C602.49,115.449,604.558,120.443,604.558,125.892z"/>
	<path stroke="#000000" stroke-width="2.3332" stroke-linecap="round" stroke-linejoin="round" stroke-miterlimit="10" d="
		M614.549,90.799c0-2.813,2.248-5.084,5.127-5.084c2.788,0,5.039,2.271,5.039,5.084c0,2.816-2.251,5.177-5.039,5.177
		C616.797,95.976,614.549,93.615,614.549,90.799z M615.808,104.669h7.736v43.561h-7.736V104.669z"/>
	<path stroke="#000000" stroke-width="2.3332" stroke-linecap="round" stroke-linejoin="round" stroke-miterlimit="10" d="
		M638.208,136.401V110.14h-6.116v-7.444h6.116v-8.178l7.737-5.923v14.101h12.685v7.444h-12.685v26.079
		c0,3.359,2.879,6.539,6.116,6.539h5.013l0.064,7.445h-5.257C644.327,150.203,638.208,144.119,638.208,136.401z"/>
	<path stroke="#000000" stroke-width="2.3332" stroke-linecap="round" stroke-linejoin="round" stroke-miterlimit="10" d="
		M708.652,127.435c0,5.812-2.249,11.261-6.389,15.438c-4.048,4.085-9.444,6.354-15.201,6.354s-11.156-2.27-15.294-6.354
		c-4.049-4.177-6.298-9.626-6.298-15.438c0-5.81,2.249-11.259,6.298-15.435c4.138-4.087,9.537-6.266,15.294-6.266
		s11.153,2.179,15.201,6.266C706.403,116.176,708.652,121.625,708.652,127.435z M700.915,127.435
		c0-7.718-6.206-13.892-13.853-13.892c-7.647,0-13.855,6.174-13.855,13.892c0,7.72,6.208,13.983,13.855,13.983
		C694.708,141.418,700.915,135.154,700.915,127.435z"/>
	<path stroke="#000000" stroke-width="2.3332" stroke-linecap="round" stroke-linejoin="round" stroke-miterlimit="10" d="
		M725.389,110.91c2.608-2.906,10.255-5.176,15.024-5.176l-1.889,7.809c-7.198,0-13.136,5.537-13.136,12.53v22.156h-7.736v-41.587
		h7.736V110.91z"/>
	<path stroke="#000000" stroke-width="2.3332" stroke-linecap="round" stroke-linejoin="round" stroke-miterlimit="10" d="
		M106.141,137.2v-30.951l-6.653,0.394v4.811c-3.868-3.266-8.726-5.719-13.854-5.719c-5.757,0-11.155,2.179-15.293,6.266
		c-4.047,4.176-6.297,9.625-6.297,15.435c0,5.812,2.25,11.261,6.297,15.438c4.139,4.085,9.536,6.264,15.293,6.264
		c4.705,0,9.173-2.071,12.868-4.939c1.743,2.065,5.212,5.191,11.413,4.955c0,0,1.888-4.861,0.315-6.157
		C110.23,142.994,106.421,141.74,106.141,137.2z M85.634,141.509c-7.647,0-13.854-6.354-13.854-14.074
		c0-7.718,6.207-14.073,13.854-14.073s13.854,6.355,13.854,14.073C99.488,135.154,93.281,141.509,85.634,141.509z"/>
	<path stroke="#000000" stroke-width="2.3332" stroke-linecap="round" stroke-linejoin="round" stroke-miterlimit="10" d="
		M290.66,136.873V105.92l-6.654,0.394v4.813c-3.868-3.268-8.726-5.721-13.854-5.721c-5.758,0-11.155,2.179-15.293,6.265
		c-4.048,4.179-6.297,9.625-6.297,15.437c0,5.813,2.249,11.26,6.297,15.437c4.138,4.087,9.535,6.264,15.293,6.264
		c4.705,0,9.173-2.071,12.869-4.938c1.743,2.063,5.212,5.188,11.413,4.953c0,0,1.888-4.86,0.315-6.155
		C294.749,142.667,290.939,141.412,290.66,136.873z M270.152,141.182c-7.646,0-13.854-6.356-13.854-14.075
		c0-7.718,6.208-14.074,13.854-14.074c7.647,0,13.854,6.356,13.854,14.074C284.006,134.825,277.799,141.182,270.152,141.182z"/>
	<path stroke="#000000" stroke-width="2.3332" stroke-linecap="round" stroke-linejoin="round" stroke-miterlimit="10" d="
		M356.958,106.643v4.811c-3.782-3.266-8.532-5.719-13.546-5.719c-5.63,0-10.907,2.179-14.954,6.266
		c-3.958,4.176-6.158,9.625-6.158,15.435c0,5.812,2.2,11.261,6.158,15.438c4.047,4.085,9.324,6.264,14.954,6.264
		c5.014,0,9.764-2.449,13.546-5.719v6.81c0,7.718-6.069,14.166-13.546,14.166c-3.255-0.184-6.755-1.007-9.306-3.096l-0.525-0.249
		c-1.689-1.429-5.975-5.09-6.228-5.739c-0.314-0.808-4.397,3.399-4.868,4.856c-0.471,1.455,5.811,5.824,6.91,6.794
		c0.076,0.067,0.167,0.094,0.267,0.096c0.778,0.653,1.583,1.278,2.402,1.785c3.255,1.998,7.125,3.179,11.348,3.179
		c5.63,0,10.907-2.27,14.866-6.356c4.046-4.087,6.246-9.623,6.246-15.436v-43.584H356.958z M343.412,141.509
		c-7.477,0-13.546-6.354-13.546-14.074c0-7.718,6.069-14.073,13.546-14.073c7.478,0,13.546,6.355,13.546,14.073
		C356.958,135.154,350.889,141.509,343.412,141.509z"/>
</g>
</svg>
